# xmcd CD database file
#
# Track frame offsets:
#	150
#	17345
#	37432
#	51563
#	76833
#	95564
#	108578
#	110638
#	129111
#	146284
#	163527
#
# Disc length: 2386 seconds
#
# Revision: 2
# Processed by: cddbd v1.5.2PL0 Copyright (c) Steve Scherf et al.
# Submitted via: CDex 1.51
#
DISCID=8e09500b
DTITLE=Jason Isbell and The 400 Unit - Here We Rest
DYEAR=2011
DGENRE=Country Rock
TTITLE0=Alabama Pines
TTITLE1=Go it Alone
TTITLE2=We've Met
TTITLE3=Codeine
TTITLE4=Stopping By
TTITLE5=Daisy Mae
TTITLE6=The Ballad of Nobeard
TTITLE7=Never Could Believe
TTITLE8=Heart On a String
TTITLE9=Save It for Sunday
TTITLE10=Tour of Duty
EXTD=YEAR: 2011
EXTT0=
EXTT1=
EXTT2=
EXTT3=
EXTT4=
EXTT5=
EXTT6=
EXTT7=
EXTT8=
EXTT9=
EXTT10=
PLAYORDER=
